<svg width="20" height="20" viewBox="0 0 20 20" fill="none" xmlns="http://www.w3.org/2000/svg">
<mask id="mask0_1802_929" style="mask-type:alpha" maskUnits="userSpaceOnUse" x="0" y="0" width="20" height="20">
<rect width="20" height="20" fill="#C4C4C4"/>
</mask>
<g mask="url(#mask0_1802_929)">
<path d="M4.84001 11.6574C4.32612 11.6574 3.88862 11.4768 3.52751 11.1157C3.1664 10.7546 2.98584 10.3241 2.98584 9.82406C2.98584 9.31017 3.1664 8.87628 3.52751 8.52239C3.88862 8.16794 4.31917 7.99072 4.81917 7.99072C5.33306 7.99072 5.77417 8.16794 6.14251 8.52239C6.51028 8.87628 6.69417 9.31017 6.69417 9.82406C6.69417 10.3241 6.51028 10.7546 6.14251 11.1157C5.77417 11.4768 5.34001 11.6574 4.84001 11.6574ZM10.1942 11.6574C9.69417 11.6574 9.26362 11.4768 8.90251 11.1157C8.5414 10.7546 8.36084 10.3241 8.36084 9.82406C8.36084 9.31017 8.5414 8.87628 8.90251 8.52239C9.26362 8.16794 9.69417 7.99072 10.1942 7.99072C10.7081 7.99072 11.142 8.16794 11.4958 8.52239C11.8503 8.87628 12.0275 9.31017 12.0275 9.82406C12.0275 10.3241 11.8503 10.7546 11.4958 11.1157C11.142 11.4768 10.7081 11.6574 10.1942 11.6574ZM15.5692 11.6574C15.0553 11.6574 14.6145 11.4768 14.2467 11.1157C13.8783 10.7546 13.6942 10.3241 13.6942 9.82406C13.6942 9.31017 13.8783 8.87628 14.2467 8.52239C14.6145 8.16794 15.0553 7.99072 15.5692 7.99072C16.0692 7.99072 16.4997 8.16794 16.8608 8.52239C17.222 8.87628 17.4025 9.31017 17.4025 9.82406C17.4025 10.3241 17.222 10.7546 16.8608 11.1157C16.4997 11.4768 16.0692 11.6574 15.5692 11.6574Z" fill="#000004"/>
</g>
</svg>
